<svg width="354" height="117" viewBox="0 0 354 117" fill="none" xmlns="http://www.w3.org/2000/svg">
<g clip-path="url(#clip0_1_125)">
<path d="M59.3656 1.21651V55.2295C59.3656 55.8986 59.9131 56.446 60.5821 56.446H114.595C115.264 56.446 115.812 55.8986 115.812 55.2295V12.4692C115.812 12.1347 115.66 11.8305 115.447 11.5872L103.403 0.33454C103.19 0.121651 102.886 0 102.582 0H60.5821C59.9131 0 59.3656 0.547429 59.3656 1.21651ZM101.731 43.551H73.4467C72.7777 43.551 72.2302 43.0036 72.2302 42.3345V14.0811C72.2302 13.412 72.7777 12.8646 73.4467 12.8646H97.5032C97.8073 12.8646 98.1115 12.9862 98.3243 13.1991L102.552 17.1528C102.795 17.3657 102.917 17.7002 102.917 18.0347V42.3345C102.917 43.0036 102.369 43.551 101.7 43.551H101.731ZM133.086 103.13H173.657C174.326 103.13 174.873 103.677 174.873 104.346V114.808C174.873 115.477 174.326 116.025 173.657 116.025H120.222C119.552 116.025 119.005 115.477 119.005 114.808V60.9167C119.005 60.2476 119.552 59.7002 120.222 59.7002H130.683C131.353 59.7002 131.9 60.2476 131.9 60.9167V101.943C131.9 102.613 132.447 103.16 133.117 103.16L133.086 103.13ZM179.587 115.994H233.6C234.269 115.994 234.817 115.447 234.817 114.778V60.7646C234.817 60.0955 234.269 59.5481 233.6 59.5481H179.587C178.918 59.5481 178.371 60.0955 178.371 60.7646V114.778C178.371 115.447 178.918 115.994 179.587 115.994ZM192.482 72.4735H220.766C221.435 72.4735 221.982 73.021 221.982 73.69V101.974C221.982 102.643 221.435 103.19 220.766 103.19H192.482C191.813 103.19 191.266 102.643 191.266 101.974V73.69C191.266 73.021 191.813 72.4735 192.482 72.4735ZM239.379 115.994H293.392C294.061 115.994 294.608 115.447 294.608 114.778V60.7646C294.608 60.0955 294.061 59.5481 293.392 59.5481H239.379C238.709 59.5481 238.162 60.0955 238.162 60.7646V114.778C238.162 115.447 238.709 115.994 239.379 115.994ZM252.243 72.4735H280.527C281.196 72.4735 281.743 73.021 281.743 73.69V101.974C281.743 102.643 281.196 103.19 280.527 103.19H252.243C251.574 103.19 251.027 102.643 251.027 101.974V73.69C251.027 73.021 251.574 72.4735 252.243 72.4735ZM1.21651 0H55.047C55.7161 0 56.2635 0.547429 56.2635 1.21651V11.6785C56.2635 12.3476 55.7161 12.895 55.047 12.895H14.0811C13.412 12.895 12.8646 13.4424 12.8646 14.1115V21.441C12.8646 22.1101 13.412 22.6575 14.0811 22.6575H41.2701C41.9391 22.6575 42.4866 23.2049 42.4866 23.874V34.336C42.4866 35.005 41.9391 35.5525 41.2701 35.5525H14.0811C13.412 35.5525 12.8646 36.0999 12.8646 36.769V42.4562C12.8646 43.1252 13.412 43.6727 14.0811 43.6727H55.047C55.7161 43.6727 56.2635 44.2201 56.2635 44.8892V55.3512C56.2635 56.0202 55.7161 56.5677 55.047 56.5677H1.21651C0.547429 56.5677 0 56.0202 0 55.3512V1.21651C0 0.547429 0.547429 0 1.21651 0ZM353.7 60.795V114.747C353.7 115.416 353.153 115.964 352.483 115.964H342.022C341.352 115.964 340.805 115.416 340.805 114.747V73.6596C340.805 72.9905 340.258 72.4431 339.589 72.4431H333.05C332.381 72.4431 331.833 72.9905 331.833 73.6596V114.869C331.833 115.538 331.286 116.085 330.617 116.085H320.155C319.486 116.085 318.938 115.538 318.938 114.869V73.6596C318.938 72.9905 318.391 72.4431 317.722 72.4431H311.244C310.575 72.4431 310.027 72.9905 310.027 73.6596V114.747C310.027 115.416 309.48 115.964 308.811 115.964H298.349C297.68 115.964 297.132 115.416 297.132 114.747V60.795C297.132 60.126 297.68 59.5785 298.349 59.5785H352.362C353.031 59.5785 353.578 60.126 353.578 60.795H353.7ZM59.3352 60.795V114.808C59.3352 115.477 59.8827 116.025 60.5517 116.025H114.565C115.234 116.025 115.781 115.477 115.781 114.808V60.795C115.781 60.126 115.234 59.5785 114.565 59.5785H60.5517C59.8827 59.5785 59.3352 60.126 59.3352 60.795ZM73.4163 72.4735H101.7C102.369 72.4735 102.917 73.021 102.917 73.69V80.1984C102.917 80.8674 102.369 81.4149 101.731 81.4149H73.4467C72.7777 81.4149 72.2302 80.8674 72.2302 80.1984V73.69C72.2302 73.021 72.7777 72.4735 73.4467 72.4735H73.4163ZM72.1998 101.943V95.4351C72.1998 94.766 72.7472 94.2186 73.4163 94.2186H101.7C102.369 94.2186 102.917 94.766 102.917 95.4351V101.943C102.917 102.613 102.369 103.16 101.731 103.16H73.4467C72.7777 103.16 72.2302 102.613 72.2302 101.943H72.1998Z" fill="white"/>
</g>
<defs>
<clipPath id="clip0_1_125">
<rect width="353.7" height="116.055" fill="white"/>
</clipPath>
</defs>
</svg>
